<svg width="160" height="43" viewBox="0 0 160 43" fill="none" xmlns="http://www.w3.org/2000/svg">
<path d="M150.589 20.4689L159.099 43C156.591 42.6413 154.084 42.1926 151.53 41.7895L146.736 29.3384L141.81 40.7605C139.392 40.3574 137.016 40.2217 134.598 39.9087L143.243 20.2002L135.404 0H142.662L147.051 11.2864L151.754 0H159.099L150.589 20.4689ZM129.672 0H123.087V39.0583C125.237 39.1926 127.477 39.2813 129.672 39.55V0ZM117.398 38.6096C111.397 38.2065 105.394 37.8492 99.2585 37.7135V0H105.976V31.3536C109.829 31.4436 113.681 31.7566 117.398 31.9353V38.6096ZM92.0912 15.2738V21.9924H82.91V37.2661H76.2801V0H95.0925V6.71862H82.91V15.2738H92.0912ZM64.9924 6.71862V37.6248C62.7528 37.6248 60.4689 37.6248 58.2737 37.7135V6.71862H51.3308V0H71.9797V6.71862H64.9924ZM44.0748 22.3497C41.1192 22.3497 37.6248 22.3497 35.1166 22.4854V32.474C39.0583 32.204 43 31.891 46.986 31.7566V38.2065L28.398 39.6857V0H46.986V6.71862H35.1166V15.7655C37.7148 15.7655 41.7009 15.6311 44.0748 15.6311V22.3497ZM6.85297 18.5881V42.0582C4.43475 42.3283 2.28387 42.6413 0 43V0H6.4056L15.1394 24.4119V0H21.858V40.2217C19.4841 40.6261 17.0659 40.7605 14.512 41.1178L6.85297 18.5881Z" fill="#D01E1E"/>
</svg>
